<svg xmlns="http://www.w3.org/2000/svg" width="1024" height="1024" viewBox="0 0 1024 1024">
  <defs>
    <style>
      .cls-1 {
        fill-rule: evenodd;
      }
    </style>
  </defs>
  <path id="Caon60" class="cls-1" d="M259.392,552.04c-10.083,8.751-27.206,14.459-44.329,14.459-33.675,0-56.7-22.069-56.7-54.223,0-30.821,22.45-54.222,56.886-54.222,14.65,0,30.631,4.946,40.334,12.176V435.794c-10.274-4.756-25.875-7.23-41.095-7.23-54.6,0-91.132,35.388-91.132,83.712s36.148,84.093,90.561,84.093c17.884,0,34.817-2.854,45.471-8.371V552.04Zm113.39,40.714V514.369c0-25.3-25.684-33.865-51.368-33.865-11.986,0-24.163,1.712-33.485,4.756v25.685a98.392,98.392,0,0,1,31.392-5.708c13.7,0,24.923,4,24.923,13.7v5.9a85.521,85.521,0,0,0-17.693-1.9c-31.012,0-52.13,15.22-52.13,37.1,0,21.689,18.835,34.817,43.378,34.817,4.566,0,16.362-.571,26.445-7.991v5.9h28.538Zm-28.538-29.109c-7.039,5.518-14.079,8.371-24.733,8.371-12.366,0-18.645-5.327-18.645-12.937,0-11.6,13.128-13.888,23.972-13.888,6.659,0,14.079.951,19.406,3.8v14.649Zm162.667-25.113c0-32.914-24.733-57.838-58.028-57.838s-57.837,24.924-57.837,57.838c0,32.723,24.543,57.457,57.837,57.457S506.911,571.255,506.911,538.532Zm-58.028,31.392c-17.313,0-29.109-12.938-29.109-31.392s11.8-31.773,29.109-31.773,29.3,13.318,29.3,31.773S466.2,569.924,448.883,569.924Zm172.75,22.83v-74.77c0-19.786-13.7-38.051-42.807-38.051a44.763,44.763,0,0,0-24.163,7.42v-3.234H525.174V592.754h29.489v-74.77c1.9-8.561,9.513-14.269,19.406-14.269,11.416,0,18.265,7.61,18.265,16.552v72.487h29.3ZM703.441,486.4a50.8,50.8,0,0,0-31.582,11.605c1.522-23.211,14.84-41.475,39.763-41.475,10.084,0,22.07,2.854,35.958,9.7V434.843c-13.127-4.186-25.113-6.279-35.767-6.279-44.9,0-68.3,34.436-69.824,78.956-0.19,3.234-.19,6.659-0.19,10.084,0,55.744,27.016,78.385,61.072,78.385,33.294,0,57.837-24.543,57.837-55.935,0-32.344-20.738-53.652-56.7-53.652h-0.571Zm27.4,53.652c0,14.84-12.937,27.587-27.777,27.587-21.5,0-28.538-19.216-28.538-30.631,0-10.274,11.415-24.163,29.87-24.163C706.866,512.847,730.838,512.847,730.838,540.054Zm107.493,56.125c49.276,0,61.832-47.564,61.832-83.9s-12.176-83.9-61.832-83.9c-49.847,0-61.643,47.564-61.643,83.9S788.864,596.179,838.331,596.179Zm0-29.68c-22.831,0-29.3-27.4-29.3-54.413,0-26.826,6.469-54.413,29.3-54.413s29.109,27.587,29.109,54.413C867.44,539.1,860.971,566.5,838.331,566.5Z"/>
</svg>
